<svg xmlns="http://www.w3.org/2000/svg" viewBox="0 0 128 128" role="img" aria-labelledby="title">
  <title id="title">RC Lens</title>
  <path d="M64 8c31 0 56 10 56 10v37c0 34-21 55-56 65C29 110 8 89 8 55V18S33 8 64 8z" fill="#f5c400"/>
  <path d="M64 8c31 0 56 10 56 10v37c0 34-21 55-56 65V8z" fill="#c11e2b"/>
  <path d="M64 19c20 0 38 5 44 7v28c0 26-15 41-44 50-29-9-44-24-44-50V26c6-2 24-7 44-7z" fill="none" stroke="#ffffff" stroke-width="5"/>
  <text x="64" y="72" text-anchor="middle" font-family="Arial, sans-serif" font-size="26" font-weight="700" fill="#fff">RCL</text>
</svg>
